<svg width="15" height="15" viewBox="0 0 512 512" fill="none" xmlns="http://www.w3.org/2000/svg">
    <path d="M 252.5 0 L 280.5 1 L 281.5 2 L 289.5 2 L 290.5 3 L 309.5 5 L 331.5 10 L 363.5 21 Q 418.1 43.9 455 84.5 Q 480.9 112.6 497 150.5 Q 504.8 169.7 509 192.5 L 510 206.5 L 511 207.5 L 512 229.5 L 511 230.5 L 511 243.5 L 510 244.5 L 509 256.5 L 501 282.5 Q 486.6 315.6 460.5 337 Q 439.4 354.9 409.5 364 L 384.5 369 L 318.5 369 Q 316.8 371.8 310.5 370 Q 294 374.5 285 386.5 L 277 403.5 L 277 420.5 L 283 435.5 L 292 446.5 L 296 454.5 L 298 461.5 L 298 476.5 Q 294.9 491.4 285.5 500 L 271.5 509 L 264.5 511 L 252.5 512 L 251.5 511 L 224.5 510 L 223.5 509 L 216.5 509 L 200.5 506 L 181.5 501 L 156.5 492 Q 102.5 468.5 66 427.5 Q 33.5 392 15 342.5 Q 8.1 323.4 4 301.5 L 2 279.5 L 1 278.5 L 0 252.5 L 1 251.5 L 2 224.5 L 3 223.5 L 3 216.5 L 6 200.5 L 11 181.5 L 20 156.5 Q 43.5 102.5 84.5 66 Q 115.4 37.9 156.5 20 L 181.5 11 L 200.5 6 L 216.5 3 L 223.5 3 L 224.5 2 L 251.5 1 L 252.5 0 Z" 
          stroke="currentColor" stroke-width="1.5" stroke-linecap="round" stroke-linejoin="round" fill="none"/>

    <path d="M 177 57 L 162 63 L 157 67 Q 145 76 142 94 L 143 111 Q 146 121 152 128 Q 159 136 170 140 L 185 143 L 201 140 L 214 132 L 221 124 L 225 116 L 228 104 Q 228 81 216 70 Q 208 60 194 57 L 177 57 Z" 
          stroke="currentColor" stroke-width="1.5" stroke-linecap="round" stroke-linejoin="round" fill="none"/>
          
    <path d="M 319 57 Q 306 60 298 68 Q 291 74 287 84 L 284 96 Q 284 118 295 129 Q 301 136 312 140 L 327 143 Q 330 141 337 142 L 343 140 L 355 133 Q 367 124 370 106 L 369 89 Q 366 78 360 72 Q 353 63 343 59 L 336 57 L 319 57 Z" 
          stroke="currentColor" stroke-width="1.5" stroke-linecap="round" stroke-linejoin="round" fill="none"/>
          
    <path d="M 98 170 L 84 173 L 75 178 Q 61 187 57 205 Q 55 217 58 226 L 66 241 Q 75 252 92 256 L 108 256 L 115 254 L 126 248 L 136 237 L 142 223 L 142 215 L 143 214 L 140 198 L 131 184 Q 120 171 98 170 Z" 
          stroke="currentColor" stroke-width="1.5" stroke-linecap="round" stroke-linejoin="round" fill="none"/>
          
    <path d="M 411 170 L 397 173 L 383 182 L 372 198 L 369 213 Q 371 216 370 223 L 372 229 L 378 240 Q 387 252 405 256 L 421 256 L 428 254 L 440 247 Q 451 238 455 222 L 455 205 L 448 189 Q 441 178 429 173 L 422 171 L 411 170 Z" 
          stroke="currentColor" stroke-width="1.5" stroke-linecap="round" stroke-linejoin="round" fill="none"/>

</svg>