<svg width="24" height="24" viewBox="0 0 24 24" fill="none" xmlns="http://www.w3.org/2000/svg">
    <path d="M12 2C11.4477 2 11 2.44772 11 3V4C11 4.55228 11.4477 5 12 5C12.5523 5 13 4.55228 13 4V3C13 2.44772 12.5523 2 12 2Z" fill="none" stroke="currentColor" stroke-width="0.1"/>
    <path fill-rule="evenodd" clip-rule="evenodd" d="M18 10C18 7.23858 15.7614 5 13 5H11C8.23858 5 6 7.23858 6 10V16H4V18H20V16H18V10ZM12 20C12 20.5523 12.4477 21 13 21H11C11.5523 21 12 20.5523 12 20Z" fill="none" stroke="currentColor" stroke-width="1.5"/>
</svg>