<svg width="24" height="24" viewBox="0 0 24 24" fill="none" xmlns="http://www.w3.org/2000/svg">
<path d="M19.0494 15.6548C18.1725 15.6548 17.2956 15.4678 16.4862 15.0939C16.1491 14.9333 15.7562 14.9961 15.4746 15.2777L13.1165 17.6359C10.7566 16.2995 8.70051 14.2434 7.36411 11.8835L9.72228 9.52543C10.0039 9.2438 10.0667 8.85087 9.90614 8.5138C9.53218 7.70438 9.34519 6.82751 9.34519 5.95062C9.34519 5.37893 8.88371 4.91745 8.31202 4.91745H5.95062C5.37893 4.91745 4.91745 5.37893 4.91745 5.95062C4.91745 13.064 10.936 19.0825 18.0494 19.0825C18.6211 19.0825 19.0825 18.6211 19.0825 18.0494V15.6548C19.0825 15.6548 19.0825 15.6548 19.0494 15.6548Z" stroke="#9CA3AF" stroke-width="1.5" stroke-linecap="round" stroke-linejoin="round"/>
</svg>